<svg width="17" height="16" viewBox="0 0 17 16" fill="none" xmlns="http://www.w3.org/2000/svg">
<path d="M15.0798 2.3178C14.4577 1.69568 13.6306 1.35307 12.7508 1.35307C11.8712 1.35307 11.0444 1.69546 10.4223 2.3172C10.4222 2.31739 10.4219 2.31758 10.4217 2.31777L5.74706 6.99246L3.41667 9.32288C2.68315 10.0564 2.68315 11.2499 3.41667 11.9834C3.772 12.3388 4.24442 12.5345 4.74695 12.5345C5.24947 12.5345 5.72189 12.3388 6.07723 11.9834L12.6245 5.43609C12.8076 5.25299 12.8076 4.95614 12.6245 4.77303C12.4415 4.58992 12.1446 4.58992 11.9615 4.77303L5.41417 11.3203C5.23594 11.4986 4.99897 11.5967 4.74695 11.5967C4.49492 11.5967 4.25796 11.4986 4.07973 11.3203C3.9015 11.1421 3.80335 10.9052 3.80335 10.6531C3.80335 10.4011 3.9015 10.1641 4.07973 9.98591L6.41012 7.65549L11.0843 2.98127C11.0845 2.98111 11.0847 2.98098 11.0848 2.98083C11.5298 2.53585 12.1214 2.29076 12.7508 2.29076C13.3801 2.29076 13.9718 2.53582 14.4167 2.98083C15.3352 3.89932 15.3353 5.3938 14.417 6.31245C14.4169 6.31255 14.4168 6.31264 14.4167 6.31273L7.41163 13.3178C5.94232 14.7871 3.55154 14.7871 2.08223 13.3178C0.612915 11.8485 0.612915 9.45772 2.08223 7.98841L8.62958 1.44109C8.81268 1.25799 8.81268 0.961136 8.62958 0.77803C8.4465 0.594925 8.14962 0.594925 7.96651 0.77803L1.41917 7.32538C-0.415764 9.16031 -0.415764 12.146 1.41917 13.9809C2.30806 14.8698 3.48987 15.3593 4.74692 15.3593C6.00399 15.3593 7.1858 14.8698 8.07469 13.9809L15.0793 6.97626C15.0795 6.97611 15.0796 6.97598 15.0798 6.97583C16.364 5.69159 16.364 3.602 15.0798 2.3178Z" fill="black"/>
</svg>
