<svg width="18" height="9" viewBox="0 0 18 9" fill="none" xmlns="http://www.w3.org/2000/svg">
<path d="M17.2529 6.00162L17.093 6.68212C16.8297 7.80271 15.776 8.55404 14.6308 8.43779L13.1686 8.28946C12.1925 8.19037 11.3878 7.48096 11.167 6.52504L10.8427 5.12004C10.8301 5.06554 10.7961 5.01837 10.7483 4.98921C10.4805 4.82546 9.88701 4.72296 9.00009 4.72296C8.34484 4.72296 7.84534 4.77804 7.51176 4.87987C7.39468 4.91554 7.31313 4.95054 7.26083 4.97629L7.18531 5.01704L7.17352 5.05037L6.83299 6.52537C6.61235 7.48112 5.80794 8.19046 4.83213 8.28979L3.37738 8.43787C2.23523 8.55412 1.1833 7.80729 0.916425 6.69071L0.753658 6.00971C0.488383 4.89979 0.849208 3.73354 1.69493 2.96732C3.27864 1.53255 5.71974 0.833374 9.00009 0.833374C12.2858 0.833374 14.7295 1.53486 16.313 2.97439C17.1062 3.69546 17.4712 4.76921 17.2905 5.81704L17.2529 6.00162ZM16.0638 5.57321C16.1596 4.95462 15.94 4.32471 15.4721 3.89929C14.1538 2.70087 12.0027 2.08337 9.00009 2.08337C6.00217 2.08337 3.85294 2.69895 2.53417 3.89371C2.02675 4.35337 1.81025 5.05312 1.96942 5.71912L2.13218 6.40012C2.25348 6.90762 2.73163 7.24712 3.2508 7.19429L4.70554 7.04621C5.1491 7.00104 5.51473 6.67862 5.61503 6.24421L5.96683 4.72712L6.00265 4.61421C6.3158 3.78212 7.32858 3.47296 9.00009 3.47296C10.0983 3.47296 10.8877 3.60921 11.4005 3.92279C11.7347 4.12712 11.9726 4.45729 12.0607 4.83887L12.385 6.24379C12.4853 6.67837 12.8511 7.00079 13.2948 7.04587L14.757 7.19421C15.2775 7.24704 15.7565 6.90554 15.8762 6.39621L16.0361 5.71562L16.0638 5.57321Z" fill="#F9F9F9"/>
</svg>
