<svg width="17" height="16" viewBox="0 0 17 16" fill="none" xmlns="http://www.w3.org/2000/svg">
<g clip-path="url(#clip0_335_3721)">
<path d="M13.6998 2.34313C12.1888 0.832156 10.1798 0 8.04297 0C5.90609 0 3.89713 0.832156 2.38609 2.34313C0.875125 3.85416 0.0429688 5.86312 0.0429688 8C0.0429688 10.1369 0.875125 12.1458 2.38609 13.6569C3.89713 15.1678 5.90609 16 8.04297 16C10.1798 16 12.1888 15.1678 13.6998 13.6569C15.2108 12.1458 16.043 10.1369 16.043 8C16.043 5.86312 15.2108 3.85416 13.6998 2.34313ZM13.0369 12.9939C11.703 14.3279 9.92944 15.0625 8.04297 15.0625C6.1565 15.0625 4.38297 14.3279 3.04903 12.9939C1.71509 11.66 0.980469 9.88647 0.980469 8C0.980469 6.11353 1.71509 4.34 3.04903 3.00606C4.38297 1.67212 6.1565 0.9375 8.04297 0.9375C9.92944 0.9375 11.703 1.67212 13.0369 3.00606C14.3708 4.34 15.1055 6.11353 15.1055 8C15.1055 9.88647 14.3708 11.66 13.0369 12.9939Z" fill="#252525"/>
<path d="M5.53078 4.88338C5.93678 4.88338 6.26709 5.21369 6.26709 5.61969H7.20459C7.20459 4.69675 6.45371 3.94588 5.53078 3.94588C4.60784 3.94588 3.85693 4.69675 3.85693 5.61969H4.79443C4.79443 5.21369 5.12475 4.88338 5.53078 4.88338Z" fill="#252525"/>
<path d="M10.5552 4.88338C10.9612 4.88338 11.2915 5.21369 11.2915 5.61969H12.229C12.229 4.69675 11.4781 3.94588 10.5552 3.94588C9.63219 3.94588 8.88135 4.69675 8.88135 5.61969H9.81885C9.81885 5.21369 10.1492 4.88338 10.5552 4.88338Z" fill="#252525"/>
<path d="M3.18994 8.56281C3.18994 11.2388 5.367 13.4158 8.04294 13.4158C10.7189 13.4158 12.8959 11.2388 12.8959 8.56281V7.53125H3.18994V8.56281ZM4.12744 8.46875H11.9584V8.56281C11.9584 10.7218 10.2019 12.4783 8.04294 12.4783C5.88394 12.4783 4.12744 10.7218 4.12744 8.56281V8.46875Z" fill="#252525"/>
</g>
<defs>
<clipPath id="clip0_335_3721">
<rect width="16" height="16" fill="white" transform="translate(0.0429688)"/>
</clipPath>
</defs>
</svg>
