<svg width="11" height="16" viewBox="0 0 11 16" fill="none" xmlns="http://www.w3.org/2000/svg">
<path d="M1.86673 15.9516C2.0636 16.0488 2.30276 15.9965 2.44073 15.8235L9.94073 6.41722C10.053 6.27644 10.0747 6.08381 9.99654 5.92159C9.91841 5.75938 9.75429 5.65625 9.57423 5.65625H6.58082L9.05648 0.677469C9.12873 0.532156 9.12069 0.359812 9.03519 0.221875C8.94976 0.0839375 8.79898 0 8.63673 0H3.01173C2.79644 0 2.60885 0.146625 2.55685 0.3555L0.681851 7.88675C0.647007 8.02675 0.67857 8.175 0.767382 8.28866C0.856226 8.40234 0.992476 8.46875 1.13673 8.46875H3.34948L1.61938 15.418C1.5661 15.6319 1.66907 15.854 1.86673 15.9516ZM4.4041 8.11325C4.43894 7.97325 4.40738 7.825 4.31857 7.71134C4.22973 7.59766 4.09348 7.53125 3.94923 7.53125H1.73648L3.37807 0.9375H7.8801L5.40444 5.91628C5.33219 6.06159 5.34023 6.23394 5.42573 6.37187C5.51116 6.50984 5.66194 6.59375 5.82419 6.59375H8.60091L3.04873 13.5571L4.4041 8.11325Z" fill="#252525"/>
</svg>
