<svg width="11" height="16" viewBox="0 0 11 16" fill="none" xmlns="http://www.w3.org/2000/svg">
<path d="M10.0418 7.67907C10.0418 7.4345 9.85387 7.23633 9.62205 7.23633C9.39023 7.23633 9.20228 7.4345 9.20228 7.67907C9.20228 10.098 7.33647 12.0659 5.04312 12.0659C2.74977 12.0659 0.883956 10.0979 0.883956 7.67907C0.883956 7.4345 0.696015 7.23633 0.464195 7.23633C0.232375 7.23633 0.0444336 7.4345 0.0444336 7.67907C0.0444336 10.4372 2.06276 12.707 4.62336 12.9327V14.4991H2.75363C2.52181 14.4991 2.33387 14.6973 2.33387 14.9419C2.33387 15.1864 2.52181 15.3846 2.75363 15.3846H7.33256C7.56438 15.3846 7.75232 15.1864 7.75232 14.9419C7.75232 14.6973 7.56438 14.4991 7.33256 14.4991H5.46283V12.9327C8.02343 12.707 10.0418 10.4372 10.0418 7.67907Z" fill="#252525"/>
<path d="M5.04318 10.5366C6.53708 10.5366 7.75243 9.2547 7.75243 7.67907V3.4729C7.75243 1.89727 6.53708 0.615387 5.04318 0.615387C3.54933 0.615387 2.33398 1.89727 2.33398 3.4729V7.67907C2.33398 9.25476 3.54933 10.5366 5.04318 10.5366ZM3.17351 3.4729C3.17351 2.38553 4.01225 1.50087 5.04318 1.50087C6.07417 1.50087 6.91291 2.38553 6.91291 3.4729V7.67907C6.91291 8.76645 6.07417 9.65111 5.04318 9.65111C4.01225 9.65111 3.17351 8.76645 3.17351 7.67907V3.4729Z" fill="#252525"/>
</svg>
