<svg width="18" height="18" viewBox="0 0 18 18" fill="none" xmlns="http://www.w3.org/2000/svg">
<path d="M1.73394 0.849694C1.48987 0.60561 1.09413 0.605602 0.85006 0.849677C0.605977 1.09375 0.605968 1.48949 0.850043 1.73356L5.66699 6.55061V8.99996C5.66699 10.8409 7.15938 12.3333 9.00033 12.3333C9.69491 12.3333 10.3398 12.1209 10.8737 11.7575L11.8287 12.7124C11.0983 13.2593 10.1913 13.5833 9.20866 13.5833H8.79199L8.61166 13.5796C6.27903 13.485 4.41699 11.5641 4.41699 9.20829V8.79163L4.41129 8.70679C4.3699 8.40179 4.10841 8.16663 3.79199 8.16663C3.44682 8.16663 3.16699 8.44646 3.16699 8.79163V9.20829L3.17038 9.40521C3.26935 12.2816 5.52802 14.6096 8.37533 14.8181V16.7083L8.38099 16.7931C8.42241 17.0981 8.68391 17.3333 9.00033 17.3333C9.34549 17.3333 9.62533 17.0535 9.62533 16.7083L9.62616 14.818C10.792 14.7325 11.8591 14.2916 12.7196 13.6034L16.2665 17.1504C16.5106 17.3945 16.9063 17.3945 17.1504 17.1504C17.3945 16.9063 17.3945 16.5105 17.1504 16.2665L1.73394 0.849694ZM9.96383 10.8475C9.67574 10.9981 9.34799 11.0833 9.00033 11.0833C7.84974 11.0833 6.91699 10.1505 6.91699 8.99996V7.80063L9.96383 10.8475ZM11.0837 3.99996V8.43179L12.2754 9.62354C12.3137 9.42154 12.3337 9.21313 12.3337 8.99996V3.99996C12.3337 2.15901 10.8412 0.666627 9.00033 0.666627C7.46041 0.666627 6.16443 1.71081 5.78173 3.12975L6.91699 4.26504V3.99996C6.91699 2.84937 7.84974 1.91663 9.00033 1.91663C10.1509 1.91663 11.0837 2.84937 11.0837 3.99996ZM13.3305 10.6786L14.2854 11.6336C14.6368 10.8992 14.8337 10.0767 14.8337 9.20829V8.79163L14.828 8.70679C14.7866 8.40179 14.5251 8.16663 14.2087 8.16663C13.8635 8.16663 13.5837 8.44646 13.5837 8.79163V9.20829L13.58 9.38863C13.5617 9.83954 13.4752 10.273 13.3305 10.6786Z" fill="#252525"/>
</svg>
