<svg width="24" height="24" viewBox="0 0 24 24" fill="none" xmlns="http://www.w3.org/2000/svg">
<path d="M12 0C5.271 0 0 5.27105 0 12C0 18.7294 5.27386 24 12 24C18.729 24 24 18.729 24 12C24 5.27006 18.7255 0 12 0ZM1.875 12C1.875 6.32241 6.32245 1.875 12 1.875C13.3051 1.875 14.545 2.11059 15.6811 2.54156L14.0663 5.77102C13.4164 5.55483 12.7217 5.4375 12 5.4375C9.34608 5.4375 6.97505 7.02764 5.95491 9.44152C5.3453 9.67922 4.80066 10.0763 4.3875 10.5907C3.85552 11.253 3.5625 12.0865 3.5625 12.9375C3.5625 15.0052 5.24475 16.6875 7.3125 16.6875H8.60808L6.63577 20.6321C3.75741 18.8655 1.875 15.6933 1.875 12ZM16.6875 12C16.6875 12.5178 17.1072 12.9375 17.625 12.9375C18.1419 12.9375 18.5625 13.3581 18.5625 13.875C18.5625 14.3919 18.1419 14.8125 17.625 14.8125H11.6419L14.8916 8.31309C15.9844 9.17198 16.6875 10.5054 16.6875 12ZM9.54558 14.8125H7.3125C6.27863 14.8125 5.4375 13.9714 5.4375 12.9375C5.4375 12.0615 6.03197 11.3107 6.88303 11.1117C7.19878 11.0378 7.45402 10.806 7.5578 10.4988C8.20153 8.59298 9.98672 7.3125 12 7.3125C12.4203 7.3125 12.8277 7.36842 13.2155 7.47267L9.54558 14.8125ZM12 22.125C10.6949 22.125 9.45497 21.8894 8.31891 21.4584L10.7044 16.6875H17.625C19.1758 16.6875 20.4375 15.4258 20.4375 13.875C20.4375 12.635 19.6309 11.5799 18.5148 11.2067C18.285 9.30731 17.2403 7.65577 15.7421 6.61205L17.3642 3.36788C20.2426 5.13445 22.125 8.30667 22.125 12C22.125 17.6776 17.6775 22.125 12 22.125Z" fill="#757575"/>
</svg>
