<svg width="14" height="16" viewBox="0 0 14 16" fill="none" xmlns="http://www.w3.org/2000/svg">
<path d="M2.20801 0.5C1.17247 0.5 0.333008 1.33947 0.333008 2.375V13.625C0.333008 14.6605 1.17247 15.5 2.20801 15.5H4.29134C5.32687 15.5 6.16634 14.6605 6.16634 13.625V2.375C6.16634 1.33947 5.32687 0.5 4.29134 0.5H2.20801ZM1.58301 2.375C1.58301 2.02982 1.86283 1.75 2.20801 1.75H4.29134C4.63652 1.75 4.91634 2.02982 4.91634 2.375V13.625C4.91634 13.9702 4.63652 14.25 4.29134 14.25H2.20801C1.86283 14.25 1.58301 13.9702 1.58301 13.625V2.375ZM9.70801 0.5C8.67251 0.5 7.83301 1.33947 7.83301 2.375V13.625C7.83301 14.6605 8.67251 15.5 9.70801 15.5H11.7913C12.8268 15.5 13.6663 14.6605 13.6663 13.625V2.375C13.6663 1.33947 12.8268 0.5 11.7913 0.5H9.70801ZM9.08301 2.375C9.08301 2.02982 9.36284 1.75 9.70801 1.75H11.7913C12.1365 1.75 12.4163 2.02982 12.4163 2.375V13.625C12.4163 13.9702 12.1365 14.25 11.7913 14.25H9.70801C9.36284 14.25 9.08301 13.9702 9.08301 13.625V2.375Z" fill="#212121"/>
</svg>
