<svg width="17" height="17" viewBox="0 0 17 17" fill="none" xmlns="http://www.w3.org/2000/svg">
<g clip-path="url(#clip0_335_3699)">
<path d="M12.072 10.1324L11.2241 9.28447C10.9928 9.05313 10.673 8.93719 10.3475 8.96647C10.0216 8.99569 9.72786 9.1666 9.54139 9.43532L9.24601 9.86097C8.84433 9.78941 8.06723 9.58688 7.52404 9.04366C6.98064 8.50022 6.77814 7.72279 6.7067 7.32169L7.13245 7.02629C7.4012 6.83979 7.57211 6.54594 7.60126 6.22013C7.63048 5.89432 7.51454 5.57482 7.28326 5.34357L6.43533 4.49563C6.09458 4.15491 5.58098 4.0736 5.15723 4.29316C4.41423 4.6781 3.92617 5.39966 3.78279 6.32491C3.54926 7.83238 4.24617 9.61082 5.60151 10.9662C6.78358 12.1482 8.28736 12.8294 9.65258 12.8294C9.85276 12.8294 10.05 12.8148 10.2427 12.7849C11.168 12.6416 11.8896 12.1535 12.2745 11.4105C12.494 10.9867 12.4127 10.4731 12.072 10.1324ZM11.4118 10.9635C11.1059 11.5539 10.5263 11.7577 10.094 11.8247C8.90542 12.0087 7.41167 11.4021 6.28858 10.2791C5.16554 9.156 4.55886 7.66232 4.74298 6.47366C4.80992 6.04135 5.01373 5.46185 5.60417 5.15591C5.62017 5.14766 5.63786 5.14363 5.65579 5.14363C5.68879 5.14363 5.72267 5.15722 5.74817 5.18269L6.59614 6.03066C6.63136 6.06594 6.63586 6.10601 6.63339 6.13341C6.63092 6.16085 6.61942 6.19947 6.57842 6.22791L5.90864 6.69266C5.76858 6.78985 5.68967 6.95341 5.70083 7.12354C5.70504 7.18779 5.81555 8.70929 6.83692 9.73066C7.85829 10.7521 9.37979 10.8626 9.44404 10.8668C9.61404 10.8777 9.77776 10.799 9.87495 10.6589L10.3397 9.98916C10.3681 9.94822 10.4068 9.93669 10.4342 9.93422C10.4616 9.93169 10.5017 9.93626 10.537 9.97151L11.3849 10.8194C11.4243 10.8588 11.4353 10.918 11.4118 10.9635Z" fill="#757575"/>
<path d="M13.7246 2.84325C12.2135 1.33216 10.2045 0.5 8.06754 0.5C5.93054 0.5 3.92154 1.33216 2.41048 2.84322C1.1262 4.1275 0.310888 5.82722 0.114638 7.62928C-0.070893 9.33287 0.299357 11.0669 1.15836 12.5368L0.324669 15.6481C0.279732 15.8158 0.327669 15.9947 0.450451 16.1174C0.573169 16.2402 0.752138 16.2881 0.919701 16.2432L4.03101 15.4095C5.25301 16.1237 6.65767 16.5 8.07551 16.5C8.36311 16.5 8.65126 16.4845 8.93854 16.4532C10.7406 16.257 12.4404 15.4417 13.7246 14.1573C15.2357 12.6463 16.0679 10.6373 16.0679 8.50031C16.0679 6.36338 15.2357 4.35431 13.7246 2.84325ZM13.0375 13.4703C10.7147 15.7931 7.14689 16.2058 4.36136 14.4741C4.28361 14.4258 4.19464 14.4009 4.10479 14.4009C4.06273 14.4009 4.02048 14.4064 3.97908 14.4175L1.48104 15.0868L2.15042 12.5888C2.18517 12.459 2.16464 12.3206 2.09373 12.2066C0.361951 9.42091 0.774763 5.85313 3.09754 3.53031C5.83804 0.789875 10.297 0.789875 13.0375 3.53031C15.778 6.27075 15.778 10.7298 13.0375 13.4703Z" fill="#757575"/>
</g>
<defs>
<clipPath id="clip0_335_3699">
<rect width="16" height="16" fill="white" transform="translate(0.0678711 0.5)"/>
</clipPath>
</defs>
</svg>
